<svg xmlns="http://www.w3.org/2000/svg" width="100" height="140" fill="none" viewBox="0 0 100 140"><rect width="100" height="60" fill="#009FDA"/><g transform="translate(50,30)"><circle cx="0" cy="0" r="20" fill="#fff"/><circle cx="0" cy="0" r="15" fill="none" stroke="#009FDA" stroke-width="1"/><ellipse cx="0" cy="0" fill="none" stroke="#009FDA" stroke-width=".8" rx="15" ry="7"/><ellipse cx="0" cy="0" fill="none" stroke="#009FDA" stroke-width=".8" rx="15" ry="3"/><ellipse cx="0" cy="0" fill="none" stroke="#009FDA" stroke-width=".8" rx="7" ry="15"/><line x1="0" x2="0" y1="-15" y2="15" stroke="#009FDA" stroke-width=".8"/><circle cx="-3" cy="-3" r="2" fill="#009FDA"/><circle cx="4" cy="2" r="1.5" fill="#009FDA"/><circle cx="-2" cy="5" r="1" fill="#009FDA"/><path fill="none" stroke="#fff" stroke-width="2" d="M-25,-8 Q-20,-5 -25,0 Q-20,3 -25,8"/><path fill="none" stroke="#fff" stroke-width="2" d="M25,-8 Q20,-5 25,0 Q20,3 25,8"/><ellipse cx="-23" cy="-6" fill="#fff" rx="2" ry="1"/><ellipse cx="-23" cy="-2" fill="#fff" rx="2" ry="1"/><ellipse cx="-23" cy="2" fill="#fff" rx="2" ry="1"/><ellipse cx="-23" cy="6" fill="#fff" rx="2" ry="1"/><ellipse cx="23" cy="-6" fill="#fff" rx="2" ry="1"/><ellipse cx="23" cy="-2" fill="#fff" rx="2" ry="1"/><ellipse cx="23" cy="2" fill="#fff" rx="2" ry="1"/><ellipse cx="23" cy="6" fill="#fff" rx="2" ry="1"/></g><line x1="50" x2="50" y1="65" y2="135" stroke="#fff" stroke-width="2"/><line x1="5" x2="95" y1="100" y2="100" stroke="#fff" stroke-width="2"/><rect width="40" height="30" x="5" y="65" fill="#009FDA"/><text x="25" y="85" fill="#fff" font-family="Arial, sans-serif" font-size="24" font-weight="bold" text-anchor="middle">P</text><rect width="40" height="30" x="55" y="65" fill="#009FDA"/><text x="75" y="85" fill="#fff" font-family="Arial, sans-serif" font-size="24" font-weight="bold" text-anchor="middle">N</text><rect width="40" height="30" x="5" y="105" fill="#009FDA"/><text x="25" y="125" fill="#fff" font-family="Arial, sans-serif" font-size="24" font-weight="bold" text-anchor="middle">U</text><rect width="40" height="30" x="55" y="105" fill="#009FDA"/><text x="75" y="125" fill="#fff" font-family="Arial, sans-serif" font-size="24" font-weight="bold" text-anchor="middle">D</text></svg>